{"title":"The.Confessions.2016.720p.BRRip.x264.AC3.EURiMaGE","uid":15954509,"size":1933621676,"categoryP":"video","categoryS":"movies","magnet":"?xt=urn:btih:f82ef3d6c4e148b10d2ab19c4cc5385ef9e7a769&amp;dn=The.Confessions.2016.720p.BRRip.x264.AC3.EURiMaGE&amp;tr=udp%3A%2F%2Ftracker.leechers-paradise.org%3A6969&amp;tr=udp%3A%2F%2Fzer0day.ch%3A1337&amp;tr=udp%3A%2F%2Fopen.demonii.com%3A1337&amp;tr=udp%3A%2F%2Ftracker.coppersurfer.tk%3A6969&amp;tr=udp%3A%2F%2Fexodus.desync.com%3A6969","seeders":21,"leechers":9,"uploader":"lletaif","files":1,"time":1475605536,"description":"General \r\nUnique ID : 197181227441233659553209599481839614794 (0x9457B919266D873DA478CD5AE20BFB4A) \r\nComplete name : The.Confessions.2016.720p.BRRip.x264.AC3.EURiMaGE.mkv \r\nFormat : Matroska \r\nFormat version : Version 2 \r\nFile size : 1.80 GiB \r\nDuration : 1h 48mn \r\nOverall bit rate : 2 385 Kbps \r\nEncoded date : UTC 2016-09-23 09:04:31 \r\nWriting application : mkvmerge v9.4.0 ('Knurl') 32bit \r\nWriting library : libebml v1.3.4 + libmatroska v1.4.5 \r\nIMDB : http://www.imdb.com/title/tt4647784 \r\n\r\nVideo \r\nID : 1 \r\nFormat : AVC \r\nFormat/Info : Advanced Video Codec \r\nFormat profile :    \r\nFormat settings, CABAC : Yes \r\nFormat settings, ReFrames : 10 frames \r\nCodec ID : V_MPEG4/ISO/AVC \r\nDuration : 1h 48mn \r\nBit rate : 2 117 Kbps \r\nWidth : 1 024 pixels \r\nHeight : 432 pixels \r\nDisplay aspect ratio : 2.40:1 \r\nFrame rate mode : Constant \r\nFrame rate : 23.976 (24000/1001) fps \r\nColor space : YUV \r\nChroma subsampling : 4:2:0 \r\nBit depth : 8 bits \r\nScan type : Progressive \r\nBits/(Pixel*Frame) : 0.200 \r\nStream size : 1.60 GiB (89%) \r\nWriting library : x264 core 148 r2705 3f5ed56 \r\nEncoding settings : cabac=1 / ref=10 / deblock=1:-3:-3 / analyse=0x3:0x133 / me=umh / subme=10 / psy=1 / psy_rd=1.00:0.15 / mixed_ref=1 / me_range=32 / chroma_me=1 / trellis=2 / 8x8dct=1 / cqm=0 / deadzone=21,11 / fast_pskip=0 / chroma_qp_offset=-3 / threads=6 / lookahead_threads=1 / sliced_threads=0 / nr=0 / decimate=0 / interlaced=0 / bluray_compat=0 / constrained_intra=0 / bframes=9 / b_pyramid=2 / b_adapt=2 / b_bias=0 / direct=3 / weightb=1 / open_gop=0 / weightp=2 / keyint=240 / keyint_min=23 / scenecut=40 / intra_refresh=0 / rc_lookahead=100 / rc=2pass / mbtree=1 / bitrate=2117 / ratetol=3.0 / qcomp=0.60 / qpmin=0 / qpmax=69 / qpstep=4 / cplxblur=20.0 / qblur=0.5 / vbv_maxrate=14000 / vbv_bufsize=14000 / nal_hrd=none / filler=0 / ip_ratio=1.40 / aq=1:1.00 \r\nDefault : Yes \r\nForced : No \r\n\r\nAudio \r\nID : 2 \r\nFormat : AC-3 \r\nFormat/Info : Audio Coding 3 \r\nMode extension : CM (complete main) \r\nFormat settings, Endianness : Big \r\nCodec ID : A_AC3 \r\nDuration : 1h 48mn \r\nBit rate mode : Constant \r\nBit rate : 256 Kbps \r\nChannel(s) : 6 channels \r\nChannel positions : Front: L C R, Side: L R, LFE \r\nSampling rate : 48.0 KHz \r\nFrame rate : 31.250 fps (1536 spf) \r\nCompression mode : Lossy \r\nStream size : 198 MiB (11%) \r\nLanguage : English \r\nDefault : Yes \r\nForced : No \r\n\r\nText #1 \r\nID : 3 \r\nFormat : PGS \r\nMuxing mode : zlib \r\nCodec ID : S_HDMV/PGS \r\nCodec ID/Info : Picture based subtitle format used on BDs/HD-DVDs \r\nDuration : 1h 42mn \r\nBit rate : 4 166 bps \r\nCount of elements : 938 \r\nStream size : 3.07 MiB (0%) \r\nLanguage : English \r\nDefault : Yes \r\nForced : No \r\n\r\nText #2 \r\nID : 4 \r\nFormat : PGS \r\nMuxing mode : zlib \r\nCodec ID : S_HDMV/PGS \r\nCodec ID/Info : Picture based subtitle format used on BDs/HD-DVDs \r\nDuration : 1h 42mn \r\nBit rate : 6 940 bps \r\nCount of elements : 1546 \r\nStream size : 5.11 MiB (0%) \r\nLanguage : French \r\nDefault : No \r\nForced : No","torrent":{"xt":"urn:btih:f82ef3d6c4e148b10d2ab19c4cc5385ef9e7a769","amp;dn":"The.Confessions.2016.720p.BRRip.x264.AC3.EURiMaGE","amp;tr":["udp%3A%2F%2Ftracker.leechers-paradise.org%3A6969","udp%3A%2F%2Fzer0day.ch%3A1337","udp%3A%2F%2Fopen.demonii.com%3A1337","udp%3A%2F%2Ftracker.coppersurfer.tk%3A6969","udp%3A%2F%2Fexodus.desync.com%3A6969"],"infoHash":"f82ef3d6c4e148b10d2ab19c4cc5385ef9e7a769","infoHashBuffer":{"type":"Buffer","data":[248,46,243,214,196,225,72,177,13,42,177,156,76,197,56,94,249,231,167,105]},"announce":[],"urlList":[]}}